<svg width="41" height="27" viewBox="0 0 41 27" fill="none" xmlns="http://www.w3.org/2000/svg">
<rect width="41" height="26.1944" rx="1.92735" fill="#2A282C"/>
<path d="M20.3837 7.31665C19.9744 7.50566 19.5296 7.60309 19.0796 7.60228C18.0252 7.60228 17.3997 6.99021 17.3997 6.07212C17.3994 5.79674 17.4543 5.52416 17.561 5.2708C17.6678 5.01744 17.8241 4.78856 18.0207 4.59793C18.2173 4.4073 18.45 4.25887 18.7048 4.16159C18.9596 4.06432 19.2312 4.0202 19.5034 4.0319C20.2601 4.0319 20.7822 4.37109 20.7822 5.00611C20.7822 5.68193 20.2601 6.12822 18.2598 6.12822C18.2775 6.58217 18.6533 6.80149 19.2032 6.80149C19.6051 6.80035 20.0022 6.71344 20.3686 6.54647L20.3837 7.31665ZM19.917 5.08261C19.917 4.89389 19.7077 4.79953 19.4126 4.79953C18.8475 4.79953 18.4793 5.08516 18.3683 5.47535C19.627 5.4677 19.9044 5.28153 19.9044 5.08261H19.917Z" fill="white"/>
<path d="M24.383 6.59754L25.4298 4.10083H26.3707L24.8572 7.53094H23.7524L23.4825 5.44992L22.5593 7.53094H21.457L21.013 4.10083H21.8984L22.1632 6.59754L23.2605 4.15439H24.0475L24.383 6.59754Z" fill="white"/>
<path d="M25.9912 6.09C25.9825 5.82766 26.025 5.56614 26.1165 5.32046C26.2079 5.07478 26.3464 4.84976 26.5241 4.65832C26.7017 4.46688 26.915 4.31278 27.1516 4.20485C27.3883 4.09692 27.6437 4.03729 27.9032 4.02939C28.0988 4.01223 28.2954 4.04808 28.4728 4.13325C28.6501 4.21841 28.8018 4.34982 28.9122 4.51394L28.9929 4.10079H29.8607L29.3259 7.53091H28.4557L28.5011 7.11521C28.3537 7.27534 28.1741 7.40168 27.9744 7.48571C27.7747 7.56973 27.5595 7.60949 27.3433 7.60231C26.5336 7.60231 25.9912 6.9724 25.9912 6.09ZM27.9512 4.84547C27.809 4.8471 27.6685 4.87738 27.5381 4.93454C27.4076 4.99169 27.2897 5.07458 27.1913 5.17836C27.0929 5.28213 27.0159 5.4047 26.9649 5.5389C26.9139 5.67311 26.8899 5.81624 26.8943 5.95994C26.8863 6.06523 26.8999 6.17106 26.9343 6.27077C26.9687 6.37047 27.0232 6.46189 27.0943 6.53927C27.1654 6.61664 27.2515 6.67831 27.3474 6.72037C27.4432 6.76243 27.5465 6.78399 27.651 6.78368C27.9402 6.77764 28.2154 6.65636 28.4167 6.4462C28.6179 6.23605 28.7289 5.95405 28.7256 5.66156C28.7326 5.55536 28.7177 5.44884 28.6817 5.34881C28.6457 5.24878 28.5895 5.15745 28.5166 5.08064C28.4437 5.00383 28.3558 4.94325 28.2584 4.90275C28.161 4.86226 28.0564 4.84275 27.9512 4.84547V4.84547Z" fill="white"/>
<path d="M31.1154 4.56741C31.2148 4.4026 31.3545 4.26649 31.5211 4.17223C31.6876 4.07796 31.8755 4.02874 32.0664 4.0293C32.21 4.03113 32.3523 4.05698 32.4876 4.10581L32.2883 4.92445C32.1611 4.87511 32.0261 4.8492 31.8898 4.84794C31.4963 4.84794 31.0523 5.06471 30.9388 5.77113L30.6639 7.53082H29.776L30.3133 4.10071H31.1734L31.1154 4.56741Z" fill="white"/>
<path d="M32.0963 6.1002C32.0963 4.91943 32.9514 4.02938 34.0159 4.02938C34.2115 4.0125 34.4079 4.04847 34.5852 4.13361C34.7625 4.21875 34.9142 4.35001 35.0249 4.51393L35.3376 2.49667H36.2104L35.4234 7.5309H34.5506L34.5885 7.16621C34.2781 7.45948 33.8654 7.61631 33.4408 7.60231C32.6235 7.60231 32.0963 6.97239 32.0963 6.1002ZM34.0689 4.85057C33.9262 4.84985 33.7848 4.87807 33.6531 4.93356C33.5214 4.98906 33.402 5.0707 33.302 5.17366C33.2021 5.27662 33.1236 5.39881 33.0711 5.53298C33.0187 5.66716 32.9934 5.81061 32.9968 5.95483C32.9888 6.06013 33.0025 6.16596 33.0369 6.26566C33.0713 6.36536 33.1258 6.45678 33.1969 6.53416C33.2679 6.61154 33.3541 6.6732 33.4499 6.71526C33.5457 6.75733 33.6491 6.77888 33.7536 6.77857C34.0404 6.77123 34.3129 6.65033 34.5124 6.4419C34.712 6.23348 34.8226 5.95417 34.8205 5.6641C34.8278 5.55965 34.8138 5.4548 34.7793 5.35605C34.7449 5.2573 34.6907 5.16675 34.6203 5.09001C34.5498 5.01327 34.4645 4.95197 34.3697 4.9099C34.2748 4.86784 34.1724 4.84591 34.0689 4.84547V4.85057Z" fill="white"/>
<path d="M37.7692 5.50352C38.3292 5.61573 38.6142 5.87841 38.6142 6.35786C38.6142 7.15609 37.9634 7.60238 37.0251 7.60238C36.5967 7.61471 36.1712 7.52746 35.7815 7.34736L35.9934 6.59758C36.3342 6.74832 36.701 6.82978 37.073 6.8373C37.5472 6.8373 37.7389 6.73019 37.7389 6.50067C37.7389 6.34765 37.6027 6.26094 37.2622 6.19719L36.8712 6.12068C36.3314 6.02122 36.064 5.73049 36.064 5.27144C36.064 4.52676 36.7451 4.02436 37.7061 4.02436C38.0812 4.01479 38.4539 4.08789 38.7983 4.23858L38.6066 4.98581C38.297 4.85988 37.9667 4.79412 37.633 4.79199C37.1613 4.79199 36.9317 4.9144 36.9317 5.13373C36.9317 5.28164 37.073 5.36325 37.4362 5.43211L37.7692 5.50352Z" fill="white"/>
<path d="M16.0602 5.99053C16.4612 5.87399 16.8135 5.62841 17.0639 5.29104C17.3143 4.95368 17.449 4.54295 17.4476 4.12118C17.4476 3.20564 16.822 2.67773 15.9719 2.67773H14.5947C14.2617 3.03477 13.9288 3.42496 13.6059 3.84321L13.0283 7.53089H13.9666L14.1886 6.10019H15.0639C15.417 6.48018 15.6768 7.6023 16.7085 7.6023C16.8661 7.60695 17.0235 7.58717 17.1751 7.54364L17.2887 6.81936C17.2177 6.83732 17.1448 6.84589 17.0717 6.84487C16.5546 6.84487 16.3478 6.37562 16.0602 5.99053ZM15.4574 5.2688H14.3298L14.6048 3.51422H15.7424C15.8405 3.50549 15.9394 3.51839 16.0321 3.55203C16.1249 3.58567 16.2093 3.63925 16.2795 3.70908C16.3498 3.7789 16.4042 3.86331 16.4391 3.95647C16.474 4.04963 16.4884 4.14934 16.4815 4.2487C16.4843 4.38475 16.4596 4.51995 16.409 4.64602C16.3583 4.77209 16.2827 4.88638 16.1869 4.98189C16.091 5.07739 15.9768 5.1521 15.8514 5.20143C15.726 5.25077 15.5919 5.27369 15.4574 5.2688V5.2688Z" fill="white"/>
<path d="M12.2417 4.42094C11.7309 4.95185 11.2815 5.5365 10.9018 6.16423C10.8759 6.13162 10.85 6.08269 10.8223 6.04463C10.5654 5.70395 10.1329 5.15487 9.67083 4.87761C9.59235 4.82695 9.5005 4.79987 9.40654 4.79968C9.34176 4.80083 9.27828 4.81764 9.22171 4.84861C9.15603 4.88344 9.10353 4.93809 9.072 5.00446C9.04372 5.08723 9.04184 5.17649 9.0666 5.26034C9.09137 5.34419 9.14161 5.41865 9.21062 5.4738C9.66799 6.00425 10.0497 6.59314 10.3454 7.22434L10.4157 7.36207C10.468 7.45942 10.5452 7.54172 10.6399 7.60083C10.7345 7.65995 10.8433 7.69383 10.9554 7.69913H11.0016C11.1157 7.67951 11.2234 7.6332 11.3154 7.56412C11.4074 7.49503 11.4811 7.40521 11.5302 7.30226L11.569 7.23522C12.4802 5.46293 13.6686 4.05308 14.5262 3.36084C14.7905 3.14881 14.9088 3.05458 14.918 3.04915C14.9843 2.99881 15.0461 2.94304 15.1028 2.88243C15.1533 2.83715 15.1886 2.77794 15.204 2.7126C15.2194 2.64726 15.2143 2.57887 15.1893 2.51646C15.1642 2.45404 15.1205 2.40053 15.0638 2.36298C15.0072 2.32544 14.9402 2.30563 14.8718 2.30616C14.758 2.31236 14.6487 2.35146 14.5576 2.41852L14.5373 2.4312L14.4984 2.45476C13.7203 2.96035 12.848 3.80119 12.2417 4.42094Z" fill="#00AEEF"/>
<rect x="3.08173" y="11.5564" width="7.70425" height="5.39297" rx="0.770425" fill="#5F5D60"/>
<rect x="3.08173" y="20.031" width="16.9493" height="1.54085" rx="0.192606" fill="#5F5D60"/>
<g clip-path="url(#clip0)">
<path d="M29.4947 23.2279H28.2432L29.026 18.3877H30.2774L29.4947 23.2279Z" fill="white"/>
<path d="M34.0315 18.5061C33.7847 18.4081 33.3931 18.3 32.909 18.3C31.6731 18.3 30.8028 18.959 30.7975 19.9013C30.7872 20.5965 31.4206 20.9826 31.8943 21.2144C32.3785 21.4512 32.5431 21.6058 32.5431 21.817C32.5382 22.1412 32.1518 22.2907 31.7915 22.2907C31.2919 22.2907 31.0241 22.2136 30.6173 22.0332L30.4525 21.9559L30.2773 23.0424C30.5709 23.1761 31.1117 23.2948 31.6731 23.3C32.9863 23.3 33.8412 22.6511 33.8513 21.647C33.8563 21.096 33.5219 20.6739 32.8008 20.3289C32.3631 20.1074 32.095 19.9581 32.095 19.7315C32.1002 19.5255 32.3218 19.3145 32.8159 19.3145C33.2227 19.3042 33.5217 19.402 33.7481 19.4998L33.8613 19.5512L34.0315 18.5061V18.5061Z" fill="white"/>
<path d="M35.6949 21.5132C35.798 21.2351 36.1946 20.1589 36.1946 20.1589C36.1893 20.1693 36.2974 19.8757 36.3592 19.6956L36.4467 20.1126C36.4467 20.1126 36.6837 21.2712 36.7351 21.5132C36.5395 21.5132 35.9421 21.5132 35.6949 21.5132ZM37.2397 18.3877H36.2717C35.9732 18.3877 35.7464 18.4752 35.6176 18.7893L33.7586 23.2278H35.0718C35.0718 23.2278 35.288 22.6304 35.3344 22.5017C35.4785 22.5017 36.7559 22.5017 36.9413 22.5017C36.9772 22.6717 37.0906 23.2278 37.0906 23.2278H38.2494L37.2397 18.3877V18.3877Z" fill="white"/>
<path d="M27.1979 18.3877L25.9723 21.6882L25.8383 21.0189C25.6117 20.2465 24.9011 19.4073 24.108 18.99L25.2307 23.2227H26.5541L28.5213 18.3877H27.1979V18.3877Z" fill="white"/>
<path d="M24.8341 18.3877H22.8206L22.8 18.4855C24.3707 18.8872 25.4109 19.8554 25.8383 21.0191L25.4006 18.7946C25.3285 18.4855 25.1071 18.3979 24.8341 18.3877Z" fill="white"/>
</g>
<defs>
<clipPath id="clip0">
<rect width="15.4494" height="5" fill="white" transform="translate(22.8 18.3)"/>
</clipPath>
</defs>
</svg>
